<!-- /public/google-icon.svg -->
<svg xmlns="http://www.w3.org/2000/svg" viewBox="0 0 48 48" width="24" height="24">
  <path fill="#FFC107" d="M43.6 20.5H42V20H24v8h11.3C33.9 32 30 35 24 35c-6.1 0-11-4.9-11-11s4.9-11 11-11c2.8 0 5.4 1.1 7.4 2.8l6-6C33.1 5.5 28.8 4 24 4 12.9 4 4 12.9 4 24s8.9 20 20 20 20-8.9 20-20c0-1.2-.1-2.3-.4-3.5z"/>
  <path fill="#FF3D00" d="M6.3 14.6l6.6 4.8C14 16.2 18.6 13 24 13c2.8 0 5.4 1.1 7.4 2.8l6-6C33.1 5.5 28.8 4 24 4c-7.2 0-13.4 3.4-17.7 8.6z"/>
  <path fill="#4CAF50" d="M24 44c5.6 0 10.6-2.1 14.3-5.5l-6.6-5.5C29.7 35.3 26.9 36 24 36c-6 0-11-4-12.8-9.5l-6.7 5.2C8.9 39.6 15.9 44 24 44z"/>
  <path fill="#1976D2" d="M43.6 20.5H42V20H24v8h11.3c-1.6 4.6-5.7 8-11.3 8-6 0-11-4-12.8-9.5l-6.7 5.2C8.9 39.6 15.9 44 24 44c9.9 0 18-8.1 18-18 0-1.2-.1-2.3-.4-3.5z"/>
</svg>
